<?xml version="1.0" encoding="utf-8"?>
<!-- Generator: Adobe Illustrator 24.3.0, SVG Export Plug-In . SVG Version: 6.00 Build 0)  -->
<svg version="1.1" id="Layer_1" xmlns="http://www.w3.org/2000/svg" xmlns:xlink="http://www.w3.org/1999/xlink" x="0px" y="0px"
	 viewBox="0 0 300 300" enable-background="new 0 0 300 300" xml:space="preserve">
<g>
	<g>
		<g>
			<polygon fill="#7FD3B9" points="248.92,160.76 219.942,198.421 230.702,198.421 230.702,279.123 268.363,279.123 
				268.363,198.421 279.123,198.421 			"/>
		</g>
		<g>
			<g>
				<polygon fill="#BBEAD9" points="248.92,160.76 219.942,198.421 230.702,198.421 254.41,167.606 				"/>
			</g>
			<g>
				<rect x="230.702" y="198.421" fill="#BBEAD9" width="10.76" height="80.702"/>
			</g>
		</g>
		<g>
			<polygon fill="#7FD3B9" points="49.856,106.959 20.878,144.62 31.638,144.62 31.638,203.801 69.299,203.801 69.299,144.62 
				80.059,144.62 			"/>
		</g>
		<g>
			<g>
				<polygon fill="#BBEAD9" points="49.856,106.959 20.878,144.62 31.638,144.62 55.346,113.805 				"/>
			</g>
			<g>
				<rect x="31.638" y="144.62" fill="#BBEAD9" width="10.76" height="59.181"/>
			</g>
		</g>
		<g>
			<path fill="#7FD3B9" d="M152.078,20.877L123.1,58.538h10.76v25.611c5.748-2.603,12.111-4.09,18.83-4.09
				c6.72,0,13.082,1.487,18.83,4.09V58.538h10.76L152.078,20.877z"/>
		</g>
		<g>
			<polygon fill="#BBEAD9" points="152.078,20.877 123.1,58.538 133.86,58.538 157.568,27.724 			"/>
		</g>
		<g>
			<path fill="#BBEAD9" d="M144.62,80.844V58.538h-10.76v25.611C137.243,82.617,140.861,81.527,144.62,80.844z"/>
		</g>
		<g>
			
				<ellipse transform="matrix(0.7071 -0.7071 0.7071 0.7071 -44.2247 144.8112)" fill="#FFDA88" cx="152.69" cy="125.79" rx="45.731" ry="45.731"/>
		</g>
		<g>
			<path fill="#FFE2A9" d="M117.72,125.789c0-23.433,17.635-42.72,40.351-45.387c-1.768-0.208-3.557-0.344-5.38-0.344
				c-25.256,0-45.731,20.475-45.731,45.731c0,25.256,20.475,45.731,45.731,45.731c1.823,0,3.612-0.137,5.38-0.344
				C135.355,168.51,117.72,149.223,117.72,125.789z"/>
		</g>
		<g>
			<path fill="#7FD3B9" d="M187.661,279.123c0-21.52-15.657-34.971-34.971-34.971s-34.971,13.45-34.971,34.971H187.661z"/>
		</g>
		<g>
			<path fill="#FFC67B" d="M152.69,171.52c-2.745,0-5.425-0.252-8.07-0.615v74.098c2.595-0.541,5.288-0.851,8.07-0.851
				c2.782,0,5.475,0.31,8.07,0.851v-74.098C158.115,171.268,155.436,171.52,152.69,171.52z"/>
		</g>
		<g>
			<path fill="#7FD3B9" d="M144.62,206.833c-2.449-3.728-5.249-7.358-8.222-10.332c-10.508-10.503-17.357-10.542-21.56-6.341
				c-4.204,4.203-4.164,11.052,6.341,21.56c6.604,6.604,16.424,12.415,23.441,15.195V206.833z"/>
		</g>
		<g>
			<path fill="#7FD3B9" d="M193.758,190.159c-4.203-4.201-11.052-4.161-21.56,6.341c-4.382,4.384-8.406,10.182-11.438,15.641v15.881
				c6.904-1.995,18.956-8.607,26.656-16.303C197.922,201.211,197.962,194.362,193.758,190.159z"/>
		</g>
		<g>
			<path fill="#FE6F80" d="M166.7,129.809c-1.106-1.944-2.469-3.463-4.101-4.576c-1.631-1.098-4.043-2.333-7.232-3.683
				c-4.358-1.75-6.525-3.835-6.525-6.231c0-1.214,0.417-2.259,1.256-3.147c0.84-0.857,1.846-1.308,3.003-1.308
				c1.513,0,3.993,1.019,7.424,3.047l4.752-7.745c-2.105-3.047-4.516-4.98-9.896-4.687v-3.478c0-1.808-1.413-3.273-5.38-3.273
				c-3.967,0-5.38,1.466-5.38,3.273v4.009c0,0-1.952,0.673-4.421,3.242c-2.708,2.806-3.223,7.537-3.223,10.781
				c0,6.505,5.422,9.31,6.71,10.287c1.282,0.978,3.384,2.118,5.937,3.221c5.243,2.243,7.668,4.019,7.668,6.562
				c0,1.224-0.562,2.407-1.721,3.526c-1.164,1.124-2.367,1.597-3.628,1.691c-3.549,0.247-6.48-2.248-10.565-5.259l-5.52,7.692
				c3.743,4.429,8.764,6.431,8.764,6.525v3.268c0,1.812,1.923,3.273,5.38,3.273c3.252,0,5.38-1.461,5.38-3.273v-3.268
				c0-0.042,4.54-0.61,7.618-3.263c3.032-2.622,5.301-6.678,5.301-10.85C168.3,133.881,167.801,131.774,166.7,129.809z"/>
		</g>
		<g>
			<path fill="#BBEAD9" d="M158.07,244.551c-1.758-0.242-3.547-0.399-5.38-0.399c-19.314,0-34.971,13.45-34.971,34.971h10.76
				C128.48,259.646,141.318,246.816,158.07,244.551z"/>
		</g>
		<g>
			<path fill="#FFD39F" d="M150,171.405c-1.812-0.1-3.609-0.257-5.38-0.499v74.098c1.744-0.363,3.549-0.572,5.38-0.704V171.405z"/>
		</g>
	</g>
	<g>
		<g>
			<path fill="#161616" d="M268.363,284.503h-37.661c-2.971,0-5.38-2.409-5.38-5.38v-75.321h-5.38c-2.049,0-3.922-1.164-4.826-3.003
				c-0.906-1.839-0.688-4.035,0.562-5.659l28.978-37.661c1.006-1.308,2.559-2.083,4.209-2.099c1.497-0.094,3.218,0.725,4.253,2.015
				l30.203,37.661c1.293,1.613,1.547,3.828,0.651,5.693c-0.893,1.865-2.779,3.053-4.849,3.053h-5.38v75.321
				C273.743,282.094,271.334,284.503,268.363,284.503z M236.082,273.742h26.901v-75.321c0-2.824,2.175-5.141,4.944-5.362
				l-18.92-23.59l-18.14,23.575c2.895,0.087,5.215,2.462,5.215,5.378V273.742z"/>
		</g>
		<g>
			<path fill="#161616" d="M171.521,89.529c-0.754,0-1.51-0.158-2.22-0.478c-10.582-4.797-22.639-4.797-33.221,0
				c-1.665,0.754-3.599,0.615-5.136-0.381c-1.537-0.99-2.464-2.693-2.464-4.521V63.918h-5.38c-2.049,0-3.922-1.164-4.826-3.003
				c-0.906-1.839-0.688-4.035,0.562-5.659l28.979-37.661c1.006-1.308,2.559-2.083,4.208-2.099c1.71,0.029,3.218,0.728,4.253,2.015
				l30.203,37.661c1.292,1.613,1.547,3.827,0.651,5.693c-0.893,1.865-2.779,3.053-4.849,3.053h-5.38v20.231
				c0,1.828-0.927,3.531-2.464,4.521C173.554,89.24,172.54,89.529,171.521,89.529z M152.69,74.679c4.576,0,9.076,0.609,13.45,1.815
				V58.538c0-2.824,2.175-5.141,4.944-5.362l-18.92-23.591l-18.139,23.575c2.895,0.087,5.215,2.462,5.215,5.378v17.956
				C143.614,75.288,148.114,74.679,152.69,74.679z"/>
		</g>
		<g>
			<path fill="#161616" d="M187.661,284.503H117.72c-2.971,0-5.38-2.409-5.38-5.38c0-23.38,16.97-40.351,40.351-40.351
				c23.38,0,40.351,16.97,40.351,40.351C193.041,282.094,190.632,284.503,187.661,284.503z M123.504,273.742h58.372
				c-2.246-14.496-13.618-24.21-29.186-24.21C137.123,249.532,125.75,259.247,123.504,273.742z"/>
		</g>
		<g>
			<path fill="#161616" d="M160.76,250.383c-0.365,0-0.733-0.037-1.098-0.113c-4.697-0.977-9.247-0.977-13.944,0
				c-1.592,0.331-3.236-0.068-4.492-1.093c-1.256-1.022-1.986-2.556-1.986-4.174v-74.097c0-1.555,0.673-3.031,1.844-4.053
				c1.169-1.022,2.716-1.5,4.266-1.277c5.627,0.772,9.053,0.772,14.68,0c1.545-0.223,3.097,0.255,4.266,1.277
				c1.172,1.022,1.844,2.498,1.844,4.053v74.097c0,1.618-0.73,3.152-1.986,4.174C163.188,249.965,161.985,250.383,160.76,250.383z
				 M152.69,238.772c0.89,0,1.789,0.029,2.69,0.084v-62.024c-1.834,0.089-3.546,0.089-5.38,0v62.024
				C150.901,238.801,151.8,238.772,152.69,238.772z"/>
		</g>
		<g>
			<path fill="#161616" d="M144.62,232.294c-0.67,0-1.342-0.123-1.981-0.378c-7.313-2.895-17.961-9.089-25.264-16.393
				c-15.447-15.449-10.603-24.907-6.342-29.168c4.258-4.264,13.71-9.108,29.168,6.339c3.037,3.04,6.037,6.801,8.916,11.186
				c0.575,0.877,0.883,1.902,0.883,2.953v20.081c0,1.781-0.883,3.449-2.356,4.45C146.74,231.978,145.684,232.294,144.62,232.294z
				 M121.087,192.988c-0.927,0-1.763,0.292-2.446,0.977c-3.31,3.307,2.553,10.159,6.342,13.949
				c4.006,4.004,9.342,7.684,14.257,10.432v-9.875c-2.18-3.179-4.461-5.982-6.646-8.167
				C129.586,197.299,124.652,192.988,121.087,192.988z"/>
		</g>
		<g>
			<path fill="#161616" d="M160.76,233.402c-1.153,0-2.291-0.37-3.234-1.08c-1.35-1.017-2.146-2.609-2.146-4.3v-15.88
				c0-0.914,0.234-1.813,0.678-2.611c3.617-6.515,7.997-12.494,12.334-16.834c15.449-15.436,24.901-10.605,29.17-6.344
				c0,0.003,0,0.003,0,0.003c4.261,4.261,9.105,13.718-6.342,29.168c-8.498,8.496-21.268,15.444-28.968,17.669
				C161.761,233.334,161.26,233.402,160.76,233.402z M166.141,213.56v6.502c5.858-2.898,12.691-7.369,17.472-12.147
				c3.788-3.791,9.649-10.642,6.341-13.952c-3.302-3.31-10.161,2.553-13.952,6.344C172.611,203.699,169.141,208.369,166.141,213.56z
				"/>
		</g>
		<g>
			<path fill="#161616" d="M166.7,129.809c-1.106-1.944-2.469-3.463-4.101-4.576c-1.631-1.098-4.043-2.333-7.232-3.683
				c-4.358-1.75-6.525-3.835-6.525-6.231c0-1.214,0.417-2.259,1.256-3.147c0.84-0.857,1.846-1.308,3.003-1.308
				c1.513,0,3.993,1.019,7.424,3.047l4.752-7.745c-2.105-3.047-4.516-4.98-9.896-4.687v-3.478c0-1.808-1.413-3.273-5.38-3.273
				c-3.967,0-5.38,1.466-5.38,3.273v4.009c0,0-1.952,0.673-4.421,3.242c-2.708,2.806-3.223,7.537-3.223,10.781
				c0,6.505,5.422,9.31,6.71,10.287c1.282,0.978,3.384,2.118,5.937,3.221c5.243,2.243,7.668,4.019,7.668,6.562
				c0,1.224-0.562,2.407-1.721,3.526c-1.164,1.124-2.367,1.597-3.628,1.691c-3.549,0.247-6.48-2.248-10.565-5.259l-5.52,7.692
				c3.743,4.429,8.764,6.431,8.764,6.525v3.268c0,1.812,1.923,3.273,5.38,3.273c3.252,0,5.38-1.461,5.38-3.273v-3.268
				c0-0.042,4.54-0.61,7.618-3.263c3.032-2.622,5.301-6.678,5.301-10.85C168.3,133.881,167.801,131.774,166.7,129.809z"/>
		</g>
		<g>
			<path fill="#161616" d="M69.299,209.181H31.638c-2.971,0-5.38-2.409-5.38-5.38v-16.14c0-2.971,2.409-5.38,5.38-5.38
				c2.971,0,5.38,2.409,5.38,5.38v10.76h26.901V144.62c0-2.824,2.175-5.141,4.944-5.362l-18.92-23.59l-18.14,23.575
				c2.895,0.087,5.215,2.461,5.215,5.377v21.52c0,2.971-2.409,5.38-5.38,5.38c-2.971,0-5.38-2.409-5.38-5.38V150h-5.38
				c-2.049,0-3.922-1.164-4.826-3.003c-0.906-1.839-0.688-4.035,0.562-5.659l28.979-37.661c1.006-1.308,2.559-2.083,4.208-2.099
				c1.647-0.029,3.218,0.725,4.253,2.015l30.203,37.661c1.292,1.613,1.547,3.828,0.652,5.693c-0.893,1.865-2.779,3.053-4.85,3.053
				h-5.38v53.801C74.679,206.772,72.27,209.181,69.299,209.181z"/>
		</g>
		<g>
			<path fill="#161616" d="M152.69,176.901c-28.183,0-51.111-22.928-51.111-51.111c0-28.182,22.928-51.111,51.111-51.111
				c22.59,0,42.224,14.498,48.857,36.079c0.872,2.84-0.722,5.85-3.562,6.725c-2.842,0.854-5.853-0.722-6.725-3.562
				c-5.236-17.036-20.735-28.482-38.57-28.482c-22.251,0-40.351,18.1-40.351,40.351c0,22.251,18.1,40.351,40.351,40.351
				c19.558,0,36.247-13.973,39.681-33.226c0.52-2.924,3.276-4.891,6.242-4.35c2.924,0.52,4.873,3.315,4.35,6.242
				C198.613,159.197,177.471,176.901,152.69,176.901z"/>
		</g>
	</g>
</g>
</svg>
